<svg xmlns="http://www.w3.org/2000/svg" width="320" height="320" viewBox="0 0 41 41" shape-rendering="crispEdges">
  <rect width="41" height="41" fill="#ffffff"/>
  <path d="M0 0h7v7H0zM34 0h7v7h-7zM0 34h7v7H0zM8 0h1v1H8zM10 0h1v1h-1zM12 0h1v1h-1zM14 0h1v1h-1zM16 0h1v1h-1zM18 0h1v1h-1zM20 0h1v1h-1zM22 0h1v1h-1zM24 0h1v1h-1zM26 0h1v1h-1zM28 0h1v1h-1zM30 0h1v1h-1zM32 0h1v1h-1zM8 1h1v1H8zM12 1h1v1h-1zM16 1h1v1h-1zM20 1h1v1h-1zM24 1h1v1h-1zM28 1h1v1h-1zM32 1h1v1h-1zM8 2h1v1H8zM10 2h1v1h-1zM14 2h1v1h-1zM18 2h1v1h-1zM22 2h1v1h-1zM26 2h1v1h-1zM30 2h1v1h-1zM32 2h1v1h-1z
M8 3h1v1H8zM12 3h1v1h-1zM16 3h1v1h-1zM20 3h1v1h-1zM24 3h1v1h-1zM28 3h1v1h-1zM32 3h1v1h-1z
M8 4h1v1H8zM10 4h1v1h-1zM14 4h1v1h-1zM18 4h1v1h-1zM22 4h1v1h-1zM26 4h1v1h-1zM30 4h1v1h-1zM32 4h1v1h-1z
M8 5h1v1H8zM12 5h1v1h-1zM16 5h1v1h-1zM20 5h1v1h-1zM24 5h1v1h-1zM28 5h1v1h-1zM32 5h1v1h-1z
M8 6h1v1H8zM10 6h1v1h-1zM12 6h1v1h-1zM14 6h1v1h-1zM16 6h1v1h-1zM18 6h1v1h-1zM20 6h1v1h-1zM22 6h1v1h-1zM24 6h1v1h-1zM26 6h1v1h-1zM28 6h1v1h-1zM30 6h1v1h-1zM32 6h1v1h-1z"/>
</svg>
